<?xml version="1.0" encoding="UTF-8" standalone="no"?>
<svg
   xmlns:dc="http://purl.org/dc/elements/1.1/"
   xmlns:cc="http://creativecommons.org/ns#"
   xmlns:rdf="http://www.w3.org/1999/02/22-rdf-syntax-ns#"
   xmlns:svg="http://www.w3.org/2000/svg"
   xmlns="http://www.w3.org/2000/svg"
   xmlns:xlink="http://www.w3.org/1999/xlink"
   id="svg8"
   version="1.1"
   viewBox="0 0 460.95409 95"
   height="95mm"
   width="460.95407mm">
  <defs
     id="defs2">
    <linearGradient
       id="linearGradient2321">
      <stop
         id="stop2317"
         offset="0"
         style="stop-color:#6acfff;stop-opacity:1;" />
      <stop
         id="stop2319"
         offset="1"
         style="stop-color:#6acfff;stop-opacity:0;" />
    </linearGradient>
    <linearGradient
       gradientTransform="matrix(0.71428574,0,0,0.7142857,4.758365,59.403872)"
       gradientUnits="userSpaceOnUse"
       y2="206.39287"
       x2="117.61905"
       y1="206.39287"
       x1="12.619047"
       id="linearGradient2323"
       xlink:href="#linearGradient2321" />
  </defs>
  <metadata
     id="metadata5">
    <rdf:RDF>
      <cc:Work
         rdf:about="">
        <dc:format>image/svg+xml</dc:format>
        <dc:type
           rdf:resource="http://purl.org/dc/dcmitype/StillImage" />
        <dc:title></dc:title>
      </cc:Work>
    </rdf:RDF>
  </metadata>
  <g
     transform="translate(193.49704,-159.32735)"
     id="layer1">
    <path
       id="rect815"
       d="m 15.557685,171.11307 h 71.428566 v 71.42857 H 15.557685 Z"
       style="fill:#fffffe;fill-opacity:1;stroke:url(#linearGradient2323);stroke-width:3.57142878;stroke-miterlimit:4;stroke-dasharray:none;stroke-opacity:1" />
    <g
       id="text2327"
       style="font-style:normal;font-variant:normal;font-weight:bold;font-stretch:normal;font-size:25.39999962px;line-height:1.25;font-family:Cambria;-inkscape-font-specification:'Cambria Bold';letter-spacing:0px;word-spacing:0px;fill:#6fd0ff;fill-opacity:1;stroke:none;stroke-width:0.26458332"
       aria-label="T A L O N">
      <path
         id="path4536"
         style="fill:#6fd0ff;fill-opacity:1;stroke:#d0caff;stroke-opacity:0"
         d="m 52.937836,224.05061 h -7.6708 v -29.8704 h -9.8552 v -6.4008 h 27.381199 v 6.4008 h -9.855199 z" />
      <path
         id="path4538"
         style="fill:#000000;fill-opacity:1"
         d="m 103.73228,224.05061 -2.6416,-8.636 H 87.882678 l -2.6416,8.636 h -8.2804 l 12.8016,-36.4236 h 9.398 l 12.852402,36.4236 z m -4.470402,-15.0876 -2.6416,-8.4328 q -0.254,-0.8636 -0.6604,-2.1844 -0.4064,-1.3208 -0.8128,-2.6924 -0.4064,-1.3716 -0.6604,-2.3876 -0.254,1.016 -0.7112,2.54 -0.4064,1.4732 -0.8128,2.8448 -0.3556,1.3208 -0.5588,1.8796 l -2.5908,8.4328 z" />
      <path
         id="path4540"
         style="fill:#000000;fill-opacity:1"
         d="m 129.75299,224.05061 v -36.2712 h 7.6708 v 29.9212 h 14.732 v 6.35 z" />
      <path
         id="path4542"
         style="fill:#000000;fill-opacity:1"
         d="m 204.54171,205.86421 q 0,5.6388 -1.8796,9.8552 -1.8288,4.1656 -5.6896,6.5024 -3.81,2.3368 -9.7028,2.3368 -5.8928,0 -9.7536,-2.3368 -3.81,-2.3368 -5.6896,-6.5532 -1.8288,-4.2164 -1.8288,-9.8552 0,-5.6388 1.8288,-9.8044 1.8796,-4.1656 5.6896,-6.4516 3.8608,-2.3368 9.8044,-2.3368 5.8928,0 9.7028,2.3368 3.81,2.286 5.6388,6.5024 1.8796,4.1656 1.8796,9.8044 z m -26.4668,0 q 0,5.6896 2.1844,8.9916 2.1844,3.2512 7.0104,3.2512 4.9276,0 7.0612,-3.2512 2.1336,-3.302 2.1336,-8.9916 0,-5.6896 -2.1336,-8.9408 -2.1336,-3.302 -7.0104,-3.302 -4.8768,0 -7.0612,3.302 -2.1844,3.2512 -2.1844,8.9408 z" />
      <path
         id="path4544"
         style="fill:#000000;fill-opacity:1"
         d="m 257.45704,224.05061 h -9.7536 l -15.79879,-27.432 h -0.2032 q 0.1016,2.5908 0.2032,5.1816 0.1524,2.5908 0.254,5.1816 v 17.0688 h -6.858 v -36.2712 h 9.7028 l 15.74799,27.178 h 0.1524 q -0.1016,-2.4892 -0.2032,-4.9784 -0.1016,-2.4892 -0.1524,-5.0292 v -17.1704 h 6.9088 z" />
    </g>
    <g
       id="text2385"
       style="font-style:normal;font-variant:normal;font-weight:bold;font-stretch:normal;font-size:25.39999962px;line-height:1.25;font-family:Cambria;-inkscape-font-specification:'Cambria Bold';letter-spacing:0px;word-spacing:0px;fill:#000000;fill-opacity:1;stroke:none;stroke-width:0.26458332"
       aria-label="O P E N">
      <path
         id="path4527"
         style="font-style:normal;font-variant:normal;font-weight:bold;font-stretch:normal;font-size:50.79999924px;font-family:'Noto Sans';-inkscape-font-specification:'Noto Sans Bold';stroke-width:0.26458332"
         d="m -148.95304,207.13953 q 0,5.6388 -1.8796,9.8552 -1.8288,4.1656 -5.6896,6.5024 -3.81,2.3368 -9.7028,2.3368 -5.8928,0 -9.7536,-2.3368 -3.81,-2.3368 -5.6896,-6.5532 -1.8288,-4.2164 -1.8288,-9.8552 0,-5.6388 1.8288,-9.8044 1.8796,-4.1656 5.6896,-6.4516 3.8608,-2.3368 9.8044,-2.3368 5.8928,0 9.7028,2.3368 3.81,2.286 5.6388,6.5024 1.8796,4.1656 1.8796,9.8044 z m -26.4668,0 q 0,5.6896 2.1844,8.9916 2.1844,3.2512 7.0104,3.2512 4.9276,0 7.0612,-3.2512 2.1336,-3.302 2.1336,-8.9916 0,-5.6896 -2.1336,-8.9408 -2.1336,-3.302 -7.0104,-3.302 -4.8768,0 -7.0612,3.302 -2.1844,3.2512 -2.1844,8.9408 z" />
      <path
         id="path4529"
         style="font-style:normal;font-variant:normal;font-weight:bold;font-stretch:normal;font-size:50.79999924px;font-family:'Noto Sans';-inkscape-font-specification:'Noto Sans Bold';stroke-width:0.26458332"
         d="m -116.61169,189.05473 q 7.0104,0 10.2108,3.048 3.2512,2.9972 3.2512,8.2804 0,3.2004 -1.3208,5.9436 -1.3208,2.7432 -4.4196,4.4196 -3.048,1.6764 -8.3312,1.6764 h -3.302 v 12.9032 h -7.6708 v -36.2712 z m -0.4064,6.2992 h -3.5052 v 10.7696 h 2.54 q 3.2512,0 5.1308,-1.27 1.9304,-1.3208 1.9304,-4.2164 0,-5.2832 -6.096,-5.2832 z" />
      <path
         id="path4531"
         style="font-style:normal;font-variant:normal;font-weight:bold;font-stretch:normal;font-size:50.79999924px;font-family:'Noto Sans';-inkscape-font-specification:'Noto Sans Bold';stroke-width:0.26458332"
         d="m -62.17076,225.32593 h -20.878799 v -36.2712 h 20.878799 v 6.2992 h -13.207999 v 7.9756 h 12.293599 v 6.2992 h -12.293599 v 9.3472 h 13.207999 z" />
      <path
         id="path4533"
         style="font-style:normal;font-variant:normal;font-weight:bold;font-stretch:normal;font-size:50.79999924px;font-family:'Noto Sans';-inkscape-font-specification:'Noto Sans Bold';stroke-width:0.26458332"
         d="m -9.2212923,225.32593 h -9.7535997 l -15.7988,-27.432 h -0.2032 q 0.1016,2.5908 0.2032,5.1816 0.1524,2.5908 0.254,5.1816 v 17.0688 h -6.858 v -36.2712 h 9.7028 l 15.748,27.178 h 0.1524 q -0.1016,-2.4892 -0.2032,-4.9784 -0.1016,-2.4892 -0.1524,-5.0292 v -17.1704 h 6.9087997 z" />
    </g>
  </g>
</svg>
