<?xml version="1.0" encoding="UTF-8" standalone="no"?>
<svg
   xmlns:dc="http://purl.org/dc/elements/1.1/"
   xmlns:cc="http://creativecommons.org/ns#"
   xmlns:rdf="http://www.w3.org/1999/02/22-rdf-syntax-ns#"
   xmlns:svg="http://www.w3.org/2000/svg"
   xmlns="http://www.w3.org/2000/svg"
   xmlns:xlink="http://www.w3.org/1999/xlink"
   id="svg8"
   version="1.1"
   viewBox="0 0 263.84003 95.218117"
   height="95.218117mm"
   width="263.84003mm">
  <defs
     id="defs2">
    <linearGradient
       id="linearGradient2321">
      <stop
         id="stop2317"
         offset="0"
         style="stop-color:#6acfff;stop-opacity:1;" />
      <stop
         id="stop2319"
         offset="1"
         style="stop-color:#6acfff;stop-opacity:0;" />
    </linearGradient>
    <linearGradient
       gradientTransform="matrix(0.71428574,0,0,0.7142857,4.758365,59.403872)"
       gradientUnits="userSpaceOnUse"
       y2="206.39287"
       x2="117.61905"
       y1="206.39287"
       x1="12.619047"
       id="linearGradient2323"
       xlink:href="#linearGradient2321" />
  </defs>
  <metadata
     id="metadata5">
    <rdf:RDF>
      <cc:Work
         rdf:about="">
        <dc:format>image/svg+xml</dc:format>
        <dc:type
           rdf:resource="http://purl.org/dc/dcmitype/StillImage" />
        <dc:title></dc:title>
      </cc:Work>
    </rdf:RDF>
  </metadata>
  <g
     transform="translate(-3.7719705,-159.32735)"
     id="layer1">
    <path
       id="rect815"
       d="m 15.557685,171.11307 h 71.428566 v 71.42857 H 15.557685 Z"
       style="fill:#fffffe;fill-opacity:1;stroke:url(#linearGradient2323);stroke-width:3.57142878;stroke-miterlimit:4;stroke-dasharray:none;stroke-opacity:1" />
    <g
       id="text2327"
       style="font-style:normal;font-variant:normal;font-weight:bold;font-stretch:normal;font-size:25.39999962px;line-height:1.25;font-family:Cambria;-inkscape-font-specification:'Cambria Bold';letter-spacing:0px;word-spacing:0px;fill:#6fd0ff;fill-opacity:1;stroke:none;stroke-width:0.26458332"
       aria-label="T A L O N">
      <path
         id="path832"
         style="fill:#6fd0ff;fill-opacity:1;stroke:#d0caff;stroke-opacity:0"
         d="m 52.937836,224.05061 h -7.6708 v -29.8704 h -9.8552 v -6.4008 h 27.381199 v 6.4008 h -9.855199 z" />
      <path
         id="path834"
         style="fill:#000000;fill-opacity:1"
         d="m 103.73228,224.05061 -2.6416,-8.636 H 87.882678 l -2.6416,8.636 h -8.2804 l 12.8016,-36.4236 h 9.398 l 12.852402,36.4236 z m -4.470402,-15.0876 -2.6416,-8.4328 q -0.254,-0.8636 -0.6604,-2.1844 -0.4064,-1.3208 -0.8128,-2.6924 -0.4064,-1.3716 -0.6604,-2.3876 -0.254,1.016 -0.7112,2.54 -0.4064,1.4732 -0.8128,2.8448 -0.3556,1.3208 -0.5588,1.8796 l -2.5908,8.4328 z" />
      <path
         id="path836"
         style="fill:#000000;fill-opacity:1"
         d="m 129.75299,224.05061 v -36.2712 h 7.6708 v 29.9212 h 14.732 v 6.35 z" />
      <path
         id="path838"
         style="fill:#000000;fill-opacity:1"
         d="m 204.54171,205.86421 q 0,5.6388 -1.8796,9.8552 -1.8288,4.1656 -5.6896,6.5024 -3.81,2.3368 -9.7028,2.3368 -5.8928,0 -9.7536,-2.3368 -3.81,-2.3368 -5.6896,-6.5532 -1.8288,-4.2164 -1.8288,-9.8552 0,-5.6388 1.8288,-9.8044 1.8796,-4.1656 5.6896,-6.4516 3.8608,-2.3368 9.8044,-2.3368 5.8928,0 9.7028,2.3368 3.81,2.286 5.6388,6.5024 1.8796,4.1656 1.8796,9.8044 z m -26.4668,0 q 0,5.6896 2.1844,8.9916 2.1844,3.2512 7.0104,3.2512 4.9276,0 7.0612,-3.2512 2.1336,-3.302 2.1336,-8.9916 0,-5.6896 -2.1336,-8.9408 -2.1336,-3.302 -7.0104,-3.302 -4.8768,0 -7.0612,3.302 -2.1844,3.2512 -2.1844,8.9408 z" />
      <path
         id="path840"
         style="fill:#000000;fill-opacity:1"
         d="m 257.45704,224.05061 h -9.7536 l -15.79879,-27.432 h -0.2032 q 0.1016,2.5908 0.2032,5.1816 0.1524,2.5908 0.254,5.1816 v 17.0688 h -6.858 v -36.2712 h 9.7028 l 15.74799,27.178 h 0.1524 q -0.1016,-2.4892 -0.2032,-4.9784 -0.1016,-2.4892 -0.1524,-5.0292 v -17.1704 h 6.9088 z" />
    </g>
    <g
       id="text2385"
       style="font-style:normal;font-variant:normal;font-weight:bold;font-stretch:normal;font-size:25.39999962px;line-height:1.25;font-family:Cambria;-inkscape-font-specification:'Cambria Bold';letter-spacing:0px;word-spacing:0px;fill:#000000;fill-opacity:1;stroke:none;stroke-width:0.26458332"
       aria-label="O P E N">
      <path
         id="path823"
         style="font-style:normal;font-variant:normal;font-weight:bold;font-stretch:normal;font-size:19.75555611px;font-family:'Noto Sans';-inkscape-font-specification:'Noto Sans Bold';stroke-width:0.26458332"
         d="m 203.27188,237.27543 q 0,2.19286 -0.73096,3.83257 -0.7112,1.61996 -2.21262,2.52872 -1.48167,0.90875 -3.77331,0.90875 -2.29165,0 -3.79307,-0.90875 -1.48167,-0.90876 -2.21262,-2.54847 -0.7112,-1.63971 -0.7112,-3.83258 0,-2.19287 0.7112,-3.81282 0.73095,-1.61996 2.21262,-2.50896 1.50142,-0.90875 3.81282,-0.90875 2.29165,0 3.77331,0.90875 1.48167,0.889 2.19287,2.52871 0.73096,1.61996 0.73096,3.81283 z m -10.29265,0 q 0,2.21262 0.84949,3.49673 0.84949,1.26436 2.72627,1.26436 1.91629,0 2.74602,-1.26436 0.82973,-1.28411 0.82973,-3.49673 0,-2.21263 -0.82973,-3.47698 -0.82973,-1.28411 -2.72627,-1.28411 -1.89653,0 -2.74602,1.28411 -0.84949,1.26435 -0.84949,3.47698 z" />
      <path
         id="path825"
         style="font-style:normal;font-variant:normal;font-weight:bold;font-stretch:normal;font-size:19.75555611px;font-family:'Noto Sans';-inkscape-font-specification:'Noto Sans Bold';stroke-width:0.26458332"
         d="m 215.84907,230.24245 q 2.72626,0 3.97086,1.18533 1.26436,1.16558 1.26436,3.22016 0,1.2446 -0.51365,2.3114 -0.51364,1.0668 -1.71873,1.71873 -1.18533,0.65193 -3.23991,0.65193 h -1.28411 v 5.01792 h -2.98309 v -14.10547 z m -0.15805,2.44969 h -1.36313 v 4.18818 h 0.98778 q 1.26435,0 1.99531,-0.49389 0.75071,-0.51365 0.75071,-1.63971 0,-2.05458 -2.37067,-2.05458 z" />
      <path
         id="path827"
         style="font-style:normal;font-variant:normal;font-weight:bold;font-stretch:normal;font-size:19.75555611px;font-family:'Noto Sans';-inkscape-font-specification:'Noto Sans Bold';stroke-width:0.26458332"
         d="m 237.02054,244.34792 h -8.11953 v -14.10547 h 8.11953 v 2.44969 h -5.13644 v 3.10162 h 4.78084 v 2.44969 h -4.78084 v 3.63502 h 5.13644 z" />
      <path
         id="path829"
         style="font-style:normal;font-variant:normal;font-weight:bold;font-stretch:normal;font-size:19.75555611px;font-family:'Noto Sans';-inkscape-font-specification:'Noto Sans Bold';stroke-width:0.26458332"
         d="m 257.612,244.34792 h -3.79306 l -6.14398,-10.668 h -0.079 q 0.0395,1.00753 0.079,2.01506 0.0593,1.00754 0.0988,2.01507 v 6.63787 h -2.667 v -14.10547 h 3.77331 l 6.12422,10.56922 h 0.0593 q -0.0395,-0.96802 -0.079,-1.93604 -0.0395,-0.96803 -0.0593,-1.9558 v -6.67738 h 2.68675 z" />
    </g>
  </g>
</svg>
